# xmcd CD database file
#
# Track frame offsets:
#	150
#	16415
#	25565
#	37017
#	49925
#	64190
#	77032
#	89095
#	100825
#	132835
#	147697
#	166632
#	183487
#	196395
#	214132
#	233937
#	248060
#	261275
#
# Disc length: 3635 seconds
#
# Revision: 6
# Processed by: cddbd v1.5.2PL0 Copyright (c) Steve Scherf et al.
# Submitted via: CDex 1.51
#
DISCID=010e3112
DTITLE=Various Artist - Thats Jazz - CD3
DYEAR=1900
DGENRE=Jazz
TTITLE0=Billie Holiday - I Cover The Waterfront
TTITLE1=Glenn Miller - Serenade In Blue
TTITLE2=Bismarck 'Bix' Beiderbecke - Copenhagen
TTITLE3=Duke Ellington - Diminuendo
TTITLE4=Ella Fitzgerald - Swinging On The Reservation
TTITLE5=Original Dixieland Jazz Band - Sensation Rag
TTITLE6=Stan Getz - Don't Worry About Me
TTITLE7=Ferdinand 'Jelly Roll' Morton - Meaple Leaf
TTITLE8=Charlie Barnet - Cherokee
TTITLE9=Glenn Miller - A String Of Pearls
TTITLE10=Sonny Rollins - Just For Life
TTITLE11=Weldon John 'Jack' Teagarden - Meet Me Where They Play The Blues
TTITLE12=Billy Holiday - My Man
TTITLE13=Earl 'Father' Hines - Undecided
TTITLE14=Dizzie Gillespie - Blue Moon
TTITLE15=Louis Armstrong - A Kiss To Build A Dream On
TTITLE16=Sidney Bechet - Breathless Blues
TTITLE17=Woodrow Charles 'Woody' Herman - Mambo Herd
EXTD=
EXTT0=
EXTT1=
EXTT2=
EXTT3=
EXTT4=
EXTT5=
EXTT6=
EXTT7=
EXTT8=
EXTT9=
EXTT10=
EXTT11=
EXTT12=
EXTT13=
EXTT14=
EXTT15=
EXTT16=
EXTT17=
PLAYORDER=
